<svg width="581" height="581" viewBox="0 0 581 581" fill="none" xmlns="http://www.w3.org/2000/svg">
<path d="M503.026 136.109L503.237 136.232L503.45 136.348C520.653 145.705 530.95 163.818 530.925 183.898L530.658 398.102C530.633 418.266 520.199 436.473 503.757 445.792L503.687 445.832L503.616 445.873L317.549 553.842C317.527 553.854 317.505 553.867 317.483 553.879C300.671 563.376 279.336 563.374 262.55 553.872C262.532 553.862 262.514 553.852 262.496 553.842L77.6179 446.808L77.4338 446.701L77.2468 446.599C60.0438 437.242 49.7477 419.129 49.7726 399.05L50.0402 183.898C50.065 163.929 60.3478 145.536 78.0437 135.17C78.0544 135.164 78.0652 135.158 78.076 135.151L263.205 28.1269C280.01 18.6291 301.336 18.6244 318.122 28.1125L503.026 136.109Z" stroke="#12BB4F" stroke-width="32"/>
<path d="M149.76 271.8C161.68 271.8 170.64 265.96 174.64 255.56L165.28 252.04C162.88 258.68 157.44 262.28 149.76 262.28C139.04 262.28 132.72 255.16 132.72 243C132.72 230.92 138.96 223.88 149.76 223.88C157.36 223.88 162.8 227.32 165.28 233.88L174.48 230.28C170.4 220.04 161.52 214.36 149.76 214.36C133.28 214.36 122.72 225.64 122.72 243.08C122.72 260.52 133.28 271.8 149.76 271.8ZM196.185 230.76C188.985 230.76 183.145 233.56 178.425 239.24L185.385 245.08C188.265 241.24 192.025 239.16 196.025 239.16C200.585 239.16 203.465 241.8 203.465 246.12V247.24H193.625C189.145 247.24 185.785 247.8 183.145 249C179.305 250.76 177.225 254.28 177.225 258.92C177.225 266.44 183.145 271.8 191.465 271.8C196.665 271.8 201.145 269.56 203.465 265.88L204.265 271H213.065V246.12C213.065 236.6 206.585 230.76 196.185 230.76ZM192.985 263.64C189.145 263.64 186.825 261.88 186.825 259.08C186.825 257.64 187.385 256.52 188.425 255.8C189.705 254.84 191.625 254.44 194.905 254.44H203.465C203.465 259.56 198.745 263.64 192.985 263.64ZM243.41 230.76C238.93 230.76 234.53 233.4 232.85 238.28V231.56H223.17V271H232.77V251.16C232.77 243.72 235.65 240.12 241.49 240.12C243.41 240.12 244.93 240.6 246.29 241.48L250.93 233C248.37 231.4 246.05 230.76 243.41 230.76ZM271.341 230.76C264.141 230.76 258.301 233.56 253.581 239.24L260.541 245.08C263.421 241.24 267.181 239.16 271.181 239.16C275.741 239.16 278.621 241.8 278.621 246.12V247.24H268.781C264.301 247.24 260.941 247.8 258.301 249C254.461 250.76 252.381 254.28 252.381 258.92C252.381 266.44 258.301 271.8 266.621 271.8C271.821 271.8 276.301 269.56 278.621 265.88L279.421 271H288.221V246.12C288.221 236.6 281.741 230.76 271.341 230.76ZM268.141 263.64C264.301 263.64 261.981 261.88 261.981 259.08C261.981 257.64 262.541 256.52 263.581 255.8C264.861 254.84 266.781 254.44 270.061 254.44H278.621C278.621 259.56 273.901 263.64 268.141 263.64ZM319.367 230.76C315.127 230.76 310.727 232.12 308.007 235.48V231.56H298.407V287.32H308.007V267C310.487 269.96 314.887 271.8 319.367 271.8C329.047 271.8 336.007 264.2 336.007 251.32C336.007 239.48 330.087 230.76 319.367 230.76ZM316.967 263.4C310.087 263.4 307.127 258.12 307.127 251.24C307.127 244.2 310.087 239.16 317.047 239.16C323.447 239.16 326.407 243.48 326.407 251.24C326.407 258.92 323.367 263.4 316.967 263.4ZM359.466 230.76C352.266 230.76 346.426 233.56 341.706 239.24L348.666 245.08C351.546 241.24 355.306 239.16 359.306 239.16C363.866 239.16 366.746 241.8 366.746 246.12V247.24H356.906C352.426 247.24 349.066 247.8 346.426 249C342.586 250.76 340.506 254.28 340.506 258.92C340.506 266.44 346.426 271.8 354.746 271.8C359.946 271.8 364.426 269.56 366.746 265.88L367.546 271H376.346V246.12C376.346 236.6 369.866 230.76 359.466 230.76ZM356.266 263.64C352.426 263.64 350.106 261.88 350.106 259.08C350.106 257.64 350.666 256.52 351.706 255.8C352.986 254.84 354.906 254.44 358.186 254.44H366.746C366.746 259.56 362.026 263.64 356.266 263.64ZM401.975 271.8C409.815 271.8 415.895 267.48 418.535 260.12L409.815 256.76C408.775 260.84 405.735 263.4 401.895 263.4C395.175 263.4 392.695 257.64 392.695 251.4C392.695 245.16 395.255 239.16 401.895 239.16C405.815 239.16 408.775 241.8 409.815 245.96L418.935 242.36C415.895 234.52 409.735 230.76 401.895 230.76C389.015 230.76 382.855 241 382.855 251.4C382.855 261.8 389.095 271.8 401.975 271.8ZM459.036 250.76C459.036 239.8 453.116 230.76 440.876 230.76C427.756 230.76 422.156 241.16 422.156 251.48C422.156 262.04 427.916 271.8 441.516 271.8C448.156 271.8 453.356 269.48 457.676 264.68L451.036 258.84C448.316 261.96 445.116 263.08 441.596 263.08C435.356 263.08 432.156 259.64 431.756 254.44H458.796C458.956 253.16 459.036 251.96 459.036 250.76ZM431.676 247.24C432.076 243.16 434.796 238.76 440.796 238.76C445.996 238.76 449.836 241.96 449.836 247.24H431.676ZM155.782 371H165.782V346.92H191.782V337.72H165.782V324.44H195.302V315.24H155.782V371ZM202.383 324.12H212.463V315.24H202.383V324.12ZM202.623 371H212.223V331.56H202.623V371ZM244.925 330.76C240.125 330.76 235.805 332.36 233.005 336.12V331.56H223.405V371H233.005V355.24C233.005 348.2 233.005 339.16 241.965 339.16C249.245 339.16 249.245 345.24 249.245 347.96V371H258.845V345.56C258.845 336.2 253.805 330.76 244.925 330.76ZM284.466 330.76C277.266 330.76 271.426 333.56 266.706 339.24L273.666 345.08C276.546 341.24 280.306 339.16 284.306 339.16C288.866 339.16 291.746 341.8 291.746 346.12V347.24H281.906C277.426 347.24 274.066 347.8 271.426 349C267.586 350.76 265.506 354.28 265.506 358.92C265.506 366.44 271.426 371.8 279.746 371.8C284.946 371.8 289.426 369.56 291.746 365.88L292.546 371H301.346V346.12C301.346 336.6 294.866 330.76 284.466 330.76ZM281.266 363.64C277.426 363.64 275.106 361.88 275.106 359.08C275.106 357.64 275.666 356.52 276.706 355.8C277.986 354.84 279.906 354.44 283.186 354.44H291.746C291.746 359.56 287.026 363.64 281.266 363.64ZM332.972 330.76C328.172 330.76 323.852 332.36 321.052 336.12V331.56H311.452V371H321.052V355.24C321.052 348.2 321.052 339.16 330.012 339.16C337.292 339.16 337.292 345.24 337.292 347.96V371H346.892V345.56C346.892 336.2 341.852 330.76 332.972 330.76ZM372.913 371.8C380.753 371.8 386.833 367.48 389.473 360.12L380.753 356.76C379.713 360.84 376.673 363.4 372.833 363.4C366.113 363.4 363.633 357.64 363.633 351.4C363.633 345.16 366.193 339.16 372.833 339.16C376.753 339.16 379.713 341.8 380.753 345.96L389.873 342.36C386.833 334.52 380.673 330.76 372.833 330.76C359.953 330.76 353.793 341 353.793 351.4C353.793 361.8 360.033 371.8 372.913 371.8ZM429.973 350.76C429.973 339.8 424.053 330.76 411.813 330.76C398.693 330.76 393.093 341.16 393.093 351.48C393.093 362.04 398.853 371.8 412.453 371.8C419.093 371.8 424.293 369.48 428.613 364.68L421.973 358.84C419.253 361.96 416.053 363.08 412.533 363.08C406.293 363.08 403.093 359.64 402.693 354.44H429.733C429.893 353.16 429.973 351.96 429.973 350.76ZM402.613 347.24C403.013 343.16 405.733 338.76 411.733 338.76C416.933 338.76 420.773 341.96 420.773 347.24H402.613Z" fill="#12BB4F"/>
</svg>
