<svg width="581" height="581" viewBox="0 0 581 581" fill="none" xmlns="http://www.w3.org/2000/svg">
<path d="M503.026 136.109L503.237 136.232L503.45 136.348C520.653 145.705 530.95 163.818 530.925 183.898L530.658 398.102C530.633 418.266 520.199 436.473 503.757 445.792L503.687 445.832L503.616 445.873L317.549 553.842C317.527 553.854 317.505 553.867 317.483 553.879C300.671 563.376 279.336 563.374 262.55 553.872C262.532 553.862 262.514 553.852 262.496 553.842L77.6179 446.808L77.4338 446.701L77.2468 446.599C60.0438 437.242 49.7477 419.129 49.7726 399.05L50.0402 183.898C50.065 163.929 60.3478 145.536 78.0437 135.17C78.0544 135.164 78.0652 135.158 78.076 135.151L263.205 28.1269C280.01 18.6291 301.336 18.6244 318.122 28.1125L503.026 136.109Z" stroke="#12BB4F" stroke-width="32"/>
<path d="M149.76 321.8C161.68 321.8 170.64 315.96 174.64 305.56L165.28 302.04C162.88 308.68 157.44 312.28 149.76 312.28C139.04 312.28 132.72 305.16 132.72 293C132.72 280.92 138.96 273.88 149.76 273.88C157.36 273.88 162.8 277.32 165.28 283.88L174.48 280.28C170.4 270.04 161.52 264.36 149.76 264.36C133.28 264.36 122.72 275.64 122.72 293.08C122.72 310.52 133.28 321.8 149.76 321.8ZM196.185 280.76C188.985 280.76 183.145 283.56 178.425 289.24L185.385 295.08C188.265 291.24 192.025 289.16 196.025 289.16C200.585 289.16 203.465 291.8 203.465 296.12V297.24H193.625C189.145 297.24 185.785 297.8 183.145 299C179.305 300.76 177.225 304.28 177.225 308.92C177.225 316.44 183.145 321.8 191.465 321.8C196.665 321.8 201.145 319.56 203.465 315.88L204.265 321H213.065V296.12C213.065 286.6 206.585 280.76 196.185 280.76ZM192.985 313.64C189.145 313.64 186.825 311.88 186.825 309.08C186.825 307.64 187.385 306.52 188.425 305.8C189.705 304.84 191.625 304.44 194.905 304.44H203.465C203.465 309.56 198.745 313.64 192.985 313.64ZM243.41 280.76C238.93 280.76 234.53 283.4 232.85 288.28V281.56H223.17V321H232.77V301.16C232.77 293.72 235.65 290.12 241.49 290.12C243.41 290.12 244.93 290.6 246.29 291.48L250.93 283C248.37 281.4 246.05 280.76 243.41 280.76ZM271.341 280.76C264.141 280.76 258.301 283.56 253.581 289.24L260.541 295.08C263.421 291.24 267.181 289.16 271.181 289.16C275.741 289.16 278.621 291.8 278.621 296.12V297.24H268.781C264.301 297.24 260.941 297.8 258.301 299C254.461 300.76 252.381 304.28 252.381 308.92C252.381 316.44 258.301 321.8 266.621 321.8C271.821 321.8 276.301 319.56 278.621 315.88L279.421 321H288.221V296.12C288.221 286.6 281.741 280.76 271.341 280.76ZM268.141 313.64C264.301 313.64 261.981 311.88 261.981 309.08C261.981 307.64 262.541 306.52 263.581 305.8C264.861 304.84 266.781 304.44 270.061 304.44H278.621C278.621 309.56 273.901 313.64 268.141 313.64ZM319.367 280.76C315.127 280.76 310.727 282.12 308.007 285.48V281.56H298.407V337.32H308.007V317C310.487 319.96 314.887 321.8 319.367 321.8C329.047 321.8 336.007 314.2 336.007 301.32C336.007 289.48 330.087 280.76 319.367 280.76ZM316.967 313.4C310.087 313.4 307.127 308.12 307.127 301.24C307.127 294.2 310.087 289.16 317.047 289.16C323.447 289.16 326.407 293.48 326.407 301.24C326.407 308.92 323.367 313.4 316.967 313.4ZM359.466 280.76C352.266 280.76 346.426 283.56 341.706 289.24L348.666 295.08C351.546 291.24 355.306 289.16 359.306 289.16C363.866 289.16 366.746 291.8 366.746 296.12V297.24H356.906C352.426 297.24 349.066 297.8 346.426 299C342.586 300.76 340.506 304.28 340.506 308.92C340.506 316.44 346.426 321.8 354.746 321.8C359.946 321.8 364.426 319.56 366.746 315.88L367.546 321H376.346V296.12C376.346 286.6 369.866 280.76 359.466 280.76ZM356.266 313.64C352.426 313.64 350.106 311.88 350.106 309.08C350.106 307.64 350.666 306.52 351.706 305.8C352.986 304.84 354.906 304.44 358.186 304.44H366.746C366.746 309.56 362.026 313.64 356.266 313.64ZM401.975 321.8C409.815 321.8 415.895 317.48 418.535 310.12L409.815 306.76C408.775 310.84 405.735 313.4 401.895 313.4C395.175 313.4 392.695 307.64 392.695 301.4C392.695 295.16 395.255 289.16 401.895 289.16C405.815 289.16 408.775 291.8 409.815 295.96L418.935 292.36C415.895 284.52 409.735 280.76 401.895 280.76C389.015 280.76 382.855 291 382.855 301.4C382.855 311.8 389.095 321.8 401.975 321.8ZM459.036 300.76C459.036 289.8 453.116 280.76 440.876 280.76C427.756 280.76 422.156 291.16 422.156 301.48C422.156 312.04 427.916 321.8 441.516 321.8C448.156 321.8 453.356 319.48 457.676 314.68L451.036 308.84C448.316 311.96 445.116 313.08 441.596 313.08C435.356 313.08 432.156 309.64 431.756 304.44H458.796C458.956 303.16 459.036 301.96 459.036 300.76ZM431.676 297.24C432.076 293.16 434.796 288.76 440.796 288.76C445.996 288.76 449.836 291.96 449.836 297.24H431.676Z" fill="#12BB4F"/>
</svg>
