<svg width="581" height="581" viewBox="0 0 581 581" fill="none" xmlns="http://www.w3.org/2000/svg">
<g clip-path="url(#clip0_115_2)">
<circle cx="291.5" cy="290.5" r="290.5" fill="#12BB4F"/>
<path d="M455.366 172.294L455.576 172.417L455.79 172.533C468.007 179.178 475.399 192.076 475.381 206.523L475.173 373.581C475.155 388.113 467.639 401.105 455.982 407.712L455.911 407.752L455.84 407.793L310.693 492.016C298.666 498.802 283.36 498.801 271.351 492.012L127.135 408.519L126.951 408.412L126.764 408.311C114.547 401.666 107.155 388.768 107.173 374.321L107.381 206.523C107.399 192.187 114.765 179.009 127.467 171.564C127.478 171.557 127.489 171.551 127.5 171.545L271.852 88.0939C283.873 81.3067 299.172 81.302 311.181 88.0799L455.366 172.294Z" stroke="white" stroke-width="32"/>
<path d="M177.908 314.64C187.444 314.64 194.612 309.968 197.812 301.648L190.324 298.832C188.404 304.144 184.052 307.024 177.908 307.024C169.332 307.024 164.276 301.328 164.276 291.6C164.276 281.936 169.268 276.304 177.908 276.304C183.988 276.304 188.34 279.056 190.324 284.304L197.684 281.424C194.42 273.232 187.316 268.688 177.908 268.688C164.724 268.688 156.276 277.712 156.276 291.664C156.276 305.616 164.724 314.64 177.908 314.64ZM215.048 281.808C209.288 281.808 204.616 284.048 200.84 288.592L206.408 293.264C208.712 290.192 211.72 288.528 214.92 288.528C218.568 288.528 220.872 290.64 220.872 294.096V294.992H213C209.416 294.992 206.728 295.44 204.616 296.4C201.544 297.808 199.88 300.624 199.88 304.336C199.88 310.352 204.616 314.64 211.272 314.64C215.432 314.64 219.016 312.848 220.872 309.904L221.512 314H228.552V294.096C228.552 286.48 223.368 281.808 215.048 281.808ZM212.488 308.112C209.416 308.112 207.56 306.704 207.56 304.464C207.56 303.312 208.008 302.416 208.84 301.84C209.864 301.072 211.4 300.752 214.024 300.752H220.872C220.872 304.848 217.096 308.112 212.488 308.112ZM252.828 281.808C249.244 281.808 245.724 283.92 244.38 287.824V282.448H236.636V314H244.316V298.128C244.316 292.176 246.62 289.296 251.292 289.296C252.828 289.296 254.044 289.68 255.132 290.384L258.844 283.6C256.796 282.32 254.94 281.808 252.828 281.808ZM275.173 281.808C269.413 281.808 264.741 284.048 260.965 288.592L266.533 293.264C268.837 290.192 271.845 288.528 275.045 288.528C278.693 288.528 280.997 290.64 280.997 294.096V294.992H273.125C269.541 294.992 266.853 295.44 264.741 296.4C261.669 297.808 260.005 300.624 260.005 304.336C260.005 310.352 264.741 314.64 271.397 314.64C275.557 314.64 279.141 312.848 280.997 309.904L281.637 314H288.677V294.096C288.677 286.48 283.493 281.808 275.173 281.808ZM272.613 308.112C269.541 308.112 267.685 306.704 267.685 304.464C267.685 303.312 268.133 302.416 268.965 301.84C269.989 301.072 271.525 300.752 274.149 300.752H280.997C280.997 304.848 277.221 308.112 272.613 308.112ZM313.593 281.808C310.201 281.808 306.681 282.896 304.505 285.584V282.448H296.825V327.056H304.505V310.8C306.489 313.168 310.009 314.64 313.593 314.64C321.337 314.64 326.905 308.56 326.905 298.256C326.905 288.784 322.169 281.808 313.593 281.808ZM311.673 307.92C306.169 307.92 303.801 303.696 303.801 298.192C303.801 292.56 306.169 288.528 311.737 288.528C316.857 288.528 319.225 291.984 319.225 298.192C319.225 304.336 316.793 307.92 311.673 307.92ZM345.673 281.808C339.913 281.808 335.241 284.048 331.465 288.592L337.033 293.264C339.337 290.192 342.345 288.528 345.545 288.528C349.193 288.528 351.497 290.64 351.497 294.096V294.992H343.625C340.041 294.992 337.353 295.44 335.241 296.4C332.169 297.808 330.505 300.624 330.505 304.336C330.505 310.352 335.241 314.64 341.897 314.64C346.057 314.64 349.641 312.848 351.497 309.904L352.137 314H359.177V294.096C359.177 286.48 353.993 281.808 345.673 281.808ZM343.113 308.112C340.041 308.112 338.185 306.704 338.185 304.464C338.185 303.312 338.633 302.416 339.465 301.84C340.489 301.072 342.025 300.752 344.649 300.752H351.497C351.497 304.848 347.721 308.112 343.113 308.112ZM379.68 314.64C385.952 314.64 390.816 311.184 392.928 305.296L385.952 302.608C385.12 305.872 382.688 307.92 379.616 307.92C374.24 307.92 372.256 303.312 372.256 298.32C372.256 293.328 374.304 288.528 379.616 288.528C382.752 288.528 385.12 290.64 385.952 293.968L393.248 291.088C390.816 284.816 385.888 281.808 379.616 281.808C369.312 281.808 364.384 290 364.384 298.32C364.384 306.64 369.376 314.64 379.68 314.64ZM425.329 297.808C425.329 289.04 420.593 281.808 410.801 281.808C400.305 281.808 395.825 290.128 395.825 298.384C395.825 306.832 400.433 314.64 411.313 314.64C416.625 314.64 420.785 312.784 424.241 308.944L418.929 304.272C416.753 306.768 414.193 307.664 411.377 307.664C406.385 307.664 403.825 304.912 403.505 300.752H425.137C425.265 299.728 425.329 298.768 425.329 297.808ZM403.441 294.992C403.761 291.728 405.937 288.208 410.737 288.208C414.897 288.208 417.969 290.768 417.969 294.992H403.441Z" fill="white"/>
</g>
<defs>
<clipPath id="clip0_115_2">
<rect width="581" height="581" fill="white"/>
</clipPath>
</defs>
</svg>
