<svg width="581" height="581" viewBox="0 0 581 581" fill="none" xmlns="http://www.w3.org/2000/svg">
<g clip-path="url(#clip0_115_2)">
<circle cx="291.5" cy="290.5" r="290.5" fill="#12BB4F"/>
<path d="M455.366 172.294L455.576 172.417L455.79 172.533C468.007 179.178 475.399 192.076 475.381 206.523L475.173 373.581C475.155 388.113 467.639 401.105 455.982 407.712L455.911 407.752L455.84 407.793L310.693 492.016C298.666 498.802 283.36 498.801 271.351 492.012L127.135 408.519L126.951 408.412L126.764 408.311C114.547 401.666 107.155 388.768 107.173 374.321L107.381 206.523C107.399 192.187 114.765 179.009 127.467 171.564C127.478 171.557 127.489 171.551 127.5 171.545L271.852 88.0939C283.873 81.3067 299.172 81.302 311.181 88.0799L455.366 172.294Z" stroke="white" stroke-width="32"/>
<path d="M177.908 274.64C187.444 274.64 194.612 269.968 197.812 261.648L190.324 258.832C188.404 264.144 184.052 267.024 177.908 267.024C169.332 267.024 164.276 261.328 164.276 251.6C164.276 241.936 169.268 236.304 177.908 236.304C183.988 236.304 188.34 239.056 190.324 244.304L197.684 241.424C194.42 233.232 187.316 228.688 177.908 228.688C164.724 228.688 156.276 237.712 156.276 251.664C156.276 265.616 164.724 274.64 177.908 274.64ZM215.048 241.808C209.288 241.808 204.616 244.048 200.84 248.592L206.408 253.264C208.712 250.192 211.72 248.528 214.92 248.528C218.568 248.528 220.872 250.64 220.872 254.096V254.992H213C209.416 254.992 206.728 255.44 204.616 256.4C201.544 257.808 199.88 260.624 199.88 264.336C199.88 270.352 204.616 274.64 211.272 274.64C215.432 274.64 219.016 272.848 220.872 269.904L221.512 274H228.552V254.096C228.552 246.48 223.368 241.808 215.048 241.808ZM212.488 268.112C209.416 268.112 207.56 266.704 207.56 264.464C207.56 263.312 208.008 262.416 208.84 261.84C209.864 261.072 211.4 260.752 214.024 260.752H220.872C220.872 264.848 217.096 268.112 212.488 268.112ZM252.828 241.808C249.244 241.808 245.724 243.92 244.38 247.824V242.448H236.636V274H244.316V258.128C244.316 252.176 246.62 249.296 251.292 249.296C252.828 249.296 254.044 249.68 255.132 250.384L258.844 243.6C256.796 242.32 254.94 241.808 252.828 241.808ZM275.173 241.808C269.413 241.808 264.741 244.048 260.965 248.592L266.533 253.264C268.837 250.192 271.845 248.528 275.045 248.528C278.693 248.528 280.997 250.64 280.997 254.096V254.992H273.125C269.541 254.992 266.853 255.44 264.741 256.4C261.669 257.808 260.005 260.624 260.005 264.336C260.005 270.352 264.741 274.64 271.397 274.64C275.557 274.64 279.141 272.848 280.997 269.904L281.637 274H288.677V254.096C288.677 246.48 283.493 241.808 275.173 241.808ZM272.613 268.112C269.541 268.112 267.685 266.704 267.685 264.464C267.685 263.312 268.133 262.416 268.965 261.84C269.989 261.072 271.525 260.752 274.149 260.752H280.997C280.997 264.848 277.221 268.112 272.613 268.112ZM313.593 241.808C310.201 241.808 306.681 242.896 304.505 245.584V242.448H296.825V287.056H304.505V270.8C306.489 273.168 310.009 274.64 313.593 274.64C321.337 274.64 326.905 268.56 326.905 258.256C326.905 248.784 322.169 241.808 313.593 241.808ZM311.673 267.92C306.169 267.92 303.801 263.696 303.801 258.192C303.801 252.56 306.169 248.528 311.737 248.528C316.857 248.528 319.225 251.984 319.225 258.192C319.225 264.336 316.793 267.92 311.673 267.92ZM345.673 241.808C339.913 241.808 335.241 244.048 331.465 248.592L337.033 253.264C339.337 250.192 342.345 248.528 345.545 248.528C349.193 248.528 351.497 250.64 351.497 254.096V254.992H343.625C340.041 254.992 337.353 255.44 335.241 256.4C332.169 257.808 330.505 260.624 330.505 264.336C330.505 270.352 335.241 274.64 341.897 274.64C346.057 274.64 349.641 272.848 351.497 269.904L352.137 274H359.177V254.096C359.177 246.48 353.993 241.808 345.673 241.808ZM343.113 268.112C340.041 268.112 338.185 266.704 338.185 264.464C338.185 263.312 338.633 262.416 339.465 261.84C340.489 261.072 342.025 260.752 344.649 260.752H351.497C351.497 264.848 347.721 268.112 343.113 268.112ZM379.68 274.64C385.952 274.64 390.816 271.184 392.928 265.296L385.952 262.608C385.12 265.872 382.688 267.92 379.616 267.92C374.24 267.92 372.256 263.312 372.256 258.32C372.256 253.328 374.304 248.528 379.616 248.528C382.752 248.528 385.12 250.64 385.952 253.968L393.248 251.088C390.816 244.816 385.888 241.808 379.616 241.808C369.312 241.808 364.384 250 364.384 258.32C364.384 266.64 369.376 274.64 379.68 274.64ZM425.329 257.808C425.329 249.04 420.593 241.808 410.801 241.808C400.305 241.808 395.825 250.128 395.825 258.384C395.825 266.832 400.433 274.64 411.313 274.64C416.625 274.64 420.785 272.784 424.241 268.944L418.929 264.272C416.753 266.768 414.193 267.664 411.377 267.664C406.385 267.664 403.825 264.912 403.505 260.752H425.137C425.265 259.728 425.329 258.768 425.329 257.808ZM403.441 254.992C403.761 251.728 405.937 248.208 410.737 248.208C414.897 248.208 417.969 250.768 417.969 254.992H403.441ZM182.726 354H190.726V334.736H211.526V327.376H190.726V316.752H214.342V309.392H182.726V354ZM220.007 316.496H228.071V309.392H220.007V316.496ZM220.199 354H227.879V322.448H220.199V354ZM254.04 321.808C250.2 321.808 246.744 323.088 244.504 326.096V322.448H236.824V354H244.504V341.392C244.504 335.76 244.504 328.528 251.672 328.528C257.496 328.528 257.496 333.392 257.496 335.568V354H265.176V333.648C265.176 326.16 261.144 321.808 254.04 321.808ZM285.673 321.808C279.913 321.808 275.241 324.048 271.465 328.592L277.033 333.264C279.337 330.192 282.345 328.528 285.545 328.528C289.193 328.528 291.497 330.64 291.497 334.096V334.992H283.625C280.041 334.992 277.353 335.44 275.241 336.4C272.169 337.808 270.505 340.624 270.505 344.336C270.505 350.352 275.241 354.64 281.897 354.64C286.057 354.64 289.641 352.848 291.497 349.904L292.137 354H299.177V334.096C299.177 326.48 293.993 321.808 285.673 321.808ZM283.113 348.112C280.041 348.112 278.185 346.704 278.185 344.464C278.185 343.312 278.633 342.416 279.465 341.84C280.489 341.072 282.025 340.752 284.649 340.752H291.497C291.497 344.848 287.721 348.112 283.113 348.112ZM324.477 321.808C320.637 321.808 317.181 323.088 314.941 326.096V322.448H307.261V354H314.941V341.392C314.941 335.76 314.941 328.528 322.109 328.528C327.933 328.528 327.933 333.392 327.933 335.568V354H335.613V333.648C335.613 326.16 331.581 321.808 324.477 321.808ZM356.43 354.64C362.702 354.64 367.566 351.184 369.678 345.296L362.702 342.608C361.87 345.872 359.438 347.92 356.366 347.92C350.99 347.92 349.006 343.312 349.006 338.32C349.006 333.328 351.054 328.528 356.366 328.528C359.502 328.528 361.87 330.64 362.702 333.968L369.998 331.088C367.566 324.816 362.638 321.808 356.366 321.808C346.062 321.808 341.134 330 341.134 338.32C341.134 346.64 346.126 354.64 356.43 354.64ZM402.079 337.808C402.079 329.04 397.343 321.808 387.551 321.808C377.055 321.808 372.575 330.128 372.575 338.384C372.575 346.832 377.183 354.64 388.063 354.64C393.375 354.64 397.535 352.784 400.991 348.944L395.679 344.272C393.503 346.768 390.943 347.664 388.127 347.664C383.135 347.664 380.575 344.912 380.255 340.752H401.887C402.015 339.728 402.079 338.768 402.079 337.808ZM380.191 334.992C380.511 331.728 382.687 328.208 387.487 328.208C391.647 328.208 394.719 330.768 394.719 334.992H380.191Z" fill="white"/>
</g>
<defs>
<clipPath id="clip0_115_2">
<rect width="581" height="581" fill="white"/>
</clipPath>
</defs>
</svg>
